<?xml version="1.0" encoding="UTF-8" standalone="no"?>
<svg
   xmlns:dc="http://purl.org/dc/elements/1.1/"
   xmlns:cc="http://creativecommons.org/ns#"
   xmlns:rdf="http://www.w3.org/1999/02/22-rdf-syntax-ns#"
   xmlns:svg="http://www.w3.org/2000/svg"
   xmlns="http://www.w3.org/2000/svg"
   id="svg8"
   version="1.1"
   viewBox="0 0 215.9 38.100001"
   height="1.5in"
   width="8.5in">
  <defs
     id="defs2">
    <clipPath
       clipPathUnits="userSpaceOnUse"
       id="clipEmfPath1">
      <path
         d="M 0,0 H 398.4 V 182.99213 H 0 Z"
         id="path10" />
    </clipPath>
    <clipPath
       clipPathUnits="userSpaceOnUse"
       id="clipEmfPath2">
      <path
         d="M 3.1132812,3.0839844 V 182.98438 H 398.40039 V 3.0839844 Z"
         id="path13" />
    </clipPath>
    <pattern
       id="EMFhbasepattern"
       patternUnits="userSpaceOnUse"
       width="6"
       height="6"
       x="0"
       y="0" />
    <pattern
       id="EMFhbasepattern-2"
       patternUnits="userSpaceOnUse"
       width="6"
       height="6"
       x="0"
       y="0" />
  </defs>
  <metadata
     id="metadata5">
    <rdf:RDF>
      <cc:Work
         rdf:about="">
        <dc:format>image/svg+xml</dc:format>
        <dc:type
           rdf:resource="http://purl.org/dc/dcmitype/StillImage" />
        <dc:title></dc:title>
      </cc:Work>
    </rdf:RDF>
  </metadata>
  <g
     id="g19"
     clip-path="url(#clipEmfPath1)"
     transform="matrix(0.26458333,0,0,0.26458333,4.1328198,-257.69879)" />
  <g
     aria-label="otley "
     style="font-style:normal;font-variant:normal;font-weight:400;font-size:13.1134119px;line-height:125%;font-family:'Century Gothic';text-align:start;letter-spacing:0px;word-spacing:0px;text-anchor:start;fill:#000000;fill-opacity:1;stroke:none;stroke-width:0.26458332"
     id="text31"
     transform="translate(0.80180858,-265.58173)" />
  <g
     transform="translate(43.223739,-22.386981)"
     id="text172"
     style="font-style:normal;font-variant:normal;font-weight:400;font-size:22.12578201px;line-height:125%;font-family:Algerian;text-align:start;letter-spacing:0px;word-spacing:0px;text-anchor:start;fill:#000000;fill-opacity:1;stroke:none;stroke-width:0.26458332"
     aria-label="M" />
  <g
     style="fill:#f5f5f5;fill-opacity:1"
     transform="matrix(1.6847627,0,0,1.6847627,-44.666252,-8.8198975)"
     id="g3855">
    <path
       d="m 67.485718,9.4200854 -1.480094,1.5017006 v 11.095302 l 1.328843,1.264022 h -4.969658 l 1.501701,-1.264022 v -7.270826 l -3.424743,9.420744 h -1.037146 l -0.08643,-0.291698 h 0.939913 L 63.86651,13.827956 v -1.652951 l -4.018941,11.095301 h -0.756252 l -2.960188,-8.718508 v 5.715106 q 0,1.145182 0.151251,1.620541 0.15125,0.475359 0.713038,1.04795 l 0.972324,1.231611 h -5.650285 l -0.194465,-0.291698 h 5.30457 L 57.027828,23.28111 h -4.818407 l 0.226875,-0.11884 q 1.199201,-0.65902 1.577327,-1.328843 0.388929,-0.680627 0.388929,-2.139114 V 10.759732 L 52.976477,9.4200854 h 5.585463 l -1.566522,1.4152726 3.05742,9.042617 0.388929,-0.939914 -2.765722,-8.016275 1.415272,-1.0479492 0.226876,0.1836612 -1.350451,0.950717 2.571258,7.530113 2.78733,-7.70297 -1.31804,-1.4152726 z M 55.256037,11.98054 v 7.756988 q 0,1.782594 0.334912,2.452418 0.345715,0.669823 1.415272,0.972324 l -0.09723,-0.162054 Q 55.850235,22.265571 55.850235,20.88271 v -0.799467 -6.38493 z m 12.834682,-1.717773 -1.220807,0.875092 v 10.890033 l 1.879827,2.139114 h -5.736714 l -0.15125,-0.291698 h 5.228944 L 66.589018,22.179142 V 10.954197 l 1.274826,-0.875092 z"
       style="font-style:normal;font-variant:normal;font-weight:400;font-size:22.12578201px;line-height:125%;font-family:Algerian;text-align:start;letter-spacing:0px;word-spacing:0px;text-anchor:start;fill:#f5f5f5;fill-opacity:1;stroke:none;stroke-width:0.26458332"
       id="path238" />
    <g
       aria-label="otley "
       style="font-style:normal;font-variant:normal;font-weight:400;font-size:13.27877617px;line-height:125%;font-family:'Century Gothic';text-align:start;letter-spacing:0px;word-spacing:0px;text-anchor:start;fill:#f5f5f5;fill-opacity:1;stroke:none;stroke-width:0.26458332"
       id="text178">
      <path
         d="m 73.03018,16.93111 q 1.627428,0 2.697251,1.180047 0.972567,1.076307 0.972567,2.548125 0,1.478301 -1.030921,2.587027 -1.024436,1.102242 -2.638897,1.102242 -1.620944,0 -2.651865,-1.102242 -1.024437,-1.108726 -1.024437,-2.587027 0,-1.465334 0.972567,-2.541641 1.069823,-1.186531 2.703735,-1.186531 z m 0,0.888277 q -1.128177,0 -1.938649,0.836408 -0.810473,0.836407 -0.810473,2.022938 0,0.765086 0.369576,1.426431 0.369575,0.661346 0.998501,1.024437 0.628927,0.356608 1.381045,0.356608 0.752118,0 1.381045,-0.356608 0.628926,-0.363091 0.998501,-1.024437 0.369576,-0.661345 0.369576,-1.426431 0,-1.186531 -0.816956,-2.022938 -0.810472,-0.836408 -1.932166,-0.836408 z"
         style="font-style:normal;font-variant:normal;font-weight:400;font-size:13.27877617px;font-family:'Century Gothic';fill:#f5f5f5;stroke-width:0.26458332;fill-opacity:1"
         id="path241" />
      <path
         d="m 79.170318,14.49321 h 0.914212 v 2.619446 h 1.439399 v 0.778053 H 80.08453 v 6.276297 h -0.914212 v -6.276297 h -1.238402 v -0.778053 h 1.238402 z"
         style="font-style:normal;font-variant:normal;font-weight:400;font-size:13.27877617px;font-family:'Century Gothic';fill:#f5f5f5;stroke-width:0.26458332;fill-opacity:1"
         id="path243" />
      <path
         d="m 82.755847,14.389469 h 0.907729 v 9.777537 h -0.907729 z"
         style="font-style:normal;font-variant:normal;font-weight:400;font-size:13.27877617px;font-family:'Century Gothic';fill:#f5f5f5;stroke-width:0.26458332;fill-opacity:1"
         id="path245" />
      <path
         d="m 91.502463,21.826362 0.765085,0.401994 q -0.376059,0.739151 -0.868826,1.193015 -0.492767,0.453865 -1.108726,0.693764 -0.615959,0.233416 -1.394012,0.233416 -1.724685,0 -2.697251,-1.128177 -0.972567,-1.134661 -0.972567,-2.561092 0,-1.342142 0.82344,-2.392514 1.043888,-1.335658 2.794508,-1.335658 1.80249,0 2.878797,1.368077 0.765086,0.966083 0.778053,2.411965 H 86.15983 q 0.02594,1.231918 0.784537,2.022939 0.758602,0.784537 1.873812,0.784537 0.538153,0 1.043888,-0.18803 0.512218,-0.188029 0.868826,-0.499251 0.356608,-0.311221 0.77157,-1.004985 z m 0,-1.899747 q -0.181546,-0.726183 -0.53167,-1.160596 -0.34364,-0.434413 -0.914213,-0.700248 -0.570572,-0.265835 -1.199499,-0.265835 -1.037404,0 -1.783038,0.667829 -0.544638,0.486283 -0.82344,1.45885 z"
         style="font-style:normal;font-variant:normal;font-weight:400;font-size:13.27877617px;font-family:'Century Gothic';fill:#f5f5f5;stroke-width:0.26458332;fill-opacity:1"
         id="path247" />
      <path
         d="m 93.441111,17.112656 h 0.959599 l 2.424933,5.433405 2.353611,-5.433405 h 0.966086 l -4.207975,9.634893 h -0.959599 l 1.361594,-3.112213 z"
         style="font-style:normal;font-variant:normal;font-weight:400;font-size:13.27877617px;font-family:'Century Gothic';fill:#f5f5f5;stroke-width:0.26458332;fill-opacity:1"
         id="path249" />
    </g>
  </g>
  <path
     style="fill:none;stroke:#f5f5f5;stroke-width:0.55333334px;stroke-linecap:round;stroke-linejoin:round;stroke-miterlimit:4;stroke-dasharray:none;stroke-opacity:1"
     d="M 40.847297,35.916076 20.927297,1.3846184 1.0072953,35.916076 Z"
     id="path180" />
  <path
     style="fill:none;stroke:#f5f5f5;stroke-width:0.27666667px;stroke-linecap:round;stroke-linejoin:round;stroke-miterlimit:4;stroke-dasharray:none;stroke-opacity:1"
     d="M 43.337297,37.074618 H 2.2522953"
     id="path182" />
  <path
     style="fill:none;stroke:#f5f5f5;stroke-width:0.27666667px;stroke-linecap:round;stroke-linejoin:round;stroke-miterlimit:4;stroke-dasharray:none;stroke-opacity:1"
     d="m 23.417297,3.044618 19.92,34.03"
     id="path184" />
  <g
     transform="translate(-0.89908432,-7.89646)"
     id="text190"
     style="font-style:normal;font-variant:normal;font-weight:400;font-size:16.32148361px;line-height:125%;font-family:Algerian;text-align:start;letter-spacing:0px;word-spacing:0px;text-anchor:start;fill:#f5f5f5;fill-opacity:1;stroke:none;stroke-width:0.26458332"
     aria-label="MG">
    <path
       id="path252"
       style="font-style:normal;font-variant:normal;font-weight:400;font-size:16.32148361px;font-family:Algerian;fill:#f5f5f5;stroke-width:0.26458332;fill-opacity:1"
       d="m 21.558422,30.792432 -1.091818,1.107757 v 8.184651 l 0.980246,0.932428 h -3.665959 l 1.107757,-0.932428 v -5.363457 l -2.526323,6.949382 h -0.76507 L 15.5335,41.455589 h 0.693344 l 2.661804,-7.411611 v -1.21933 l -2.964644,8.184651 h -0.557863 l -2.183636,-6.431366 v 4.215852 q 0,0.844764 0.111572,1.195421 0.111573,0.350657 0.525986,0.773039 l 0.717252,0.90852 H 10.36928 l -0.14345,-0.215176 h 3.913012 l -0.294871,-0.438321 h -3.554385 l 0.167358,-0.08766 q 0.884612,-0.486138 1.163544,-0.980246 0.286901,-0.502076 0.286901,-1.577955 v -6.590756 l -1.051971,-0.988215 h 4.120218 l -1.155573,1.044001 2.255361,6.670451 0.286901,-0.693345 -2.040185,-5.91335 1.044001,-0.773039 0.167359,0.135481 -0.996185,0.701314 1.896735,5.554724 2.056125,-5.682236 -0.972276,-1.044001 z m -9.021445,1.888766 v 5.722082 q 0,1.314964 0.247054,1.809071 0.255023,0.494108 1.044001,0.717253 l -0.07173,-0.119542 q -0.781009,-0.541925 -0.781009,-1.562017 v -0.589741 -4.70996 z m 9.467736,-1.267147 -0.900551,0.645528 v 8.03323 l 1.386689,1.577956 H 18.25906 l -0.111573,-0.215176 h 3.857226 l -1.107757,-1.251207 v -8.280284 l 0.940398,-0.645528 z" />
    <path
       id="path254"
       style="font-style:normal;font-variant:normal;font-weight:400;font-size:16.32148361px;font-family:Algerian;fill:#f5f5f5;stroke-width:0.26458332;fill-opacity:1"
       d="m 31.791227,31.071364 -1.490292,2.932767 q -0.14345,-1.251208 -0.788978,-1.912674 -0.637558,-0.661467 -1.689528,-0.661467 -1.498261,0 -2.335056,1.163544 -0.828826,1.163543 -0.828826,3.259515 0,4.614325 3.777531,4.614325 h 1.283086 v -4.136157 h -2.008308 q -0.653497,0 -0.940398,-0.07173 -0.278931,-0.07173 -0.541924,-0.31081 V 35.74944 q 0.286901,0.215176 0.573802,0.286902 0.286901,0.06376 0.932429,0.06376 h 1.984399 V 35.669751 H 27.50365 27.145024 q -1.187452,0 -1.187452,-0.860704 0,-0.334717 0.199237,-0.573802 0.199237,-0.239084 0.478168,-0.239084 0.207206,0 0.358626,0.15142 0.15939,0.15142 0.15939,0.358626 0,0.350657 -0.255023,0.406444 l -0.191268,0.03985 q -0.09563,0.02391 -0.09563,0.0797 0,0.103603 0.262992,0.103603 h 0.270963 5.259853 l -1.099788,1.075879 v 3.928951 l 1.020093,0.876642 H 28.25278 27.447864 q -1.012124,0 -1.67359,-0.247054 -0.661466,-0.247053 -1.338872,-0.876642 -1.601864,-1.466383 -1.601864,-3.928951 0,-2.542262 1.5142,-3.968798 1.322933,-1.251208 3.139973,-1.251208 0.812886,0 1.864857,0.286902 1.075879,0.29487 1.418566,0.29487 0.502077,0 1.020093,-0.255023 z m 0.478169,0.502077 -1.362781,2.677743 -0.191267,-0.08766 1.37075,-2.685713 z m -2.550232,1.21136 -0.143451,-0.103603 q -0.90852,-0.645528 -1.65765,-0.645528 -0.908521,0 -1.569987,0.645528 -0.478168,0.478168 -0.693344,1.251207 -0.207207,0.773039 -0.207207,2.040186 0,1.609834 0.318779,2.462567 0.318779,0.852734 1.171513,1.538109 v 0.08766 q -0.924459,-0.549894 -1.330902,-1.546078 -0.406443,-1.004154 -0.406443,-2.717591 0,-1.888765 0.709283,-2.932766 0.709283,-1.051971 1.992369,-1.051971 1.115726,0 1.81704,0.924459 z m 3.0284,2.805255 -0.820856,0.820856 v 3.737683 l 1.322933,1.52217 -3.163881,-0.02391 -2.869011,0.03188 q -0.270962,0 -0.414413,-0.01594 -0.502077,-0.05579 -1.012123,-0.438321 h 0.167359 q 0.541924,0.239085 1.482322,0.239085 l 0.398474,-0.008 H 32.80335 L 31.703563,40.23626 v -3.905043 l 0.916489,-0.924459 z" />
  </g>
  <path
     style="fill:none;stroke:#f5f5f5;stroke-width:0.08645833px;stroke-linecap:round;stroke-linejoin:round;stroke-miterlimit:4;stroke-dasharray:none;stroke-opacity:1"
     d="m 16.777297,15.494618 c 0,-2.299792 1.8675,-4.15 4.15,-4.15 2.29979,0 4.15,1.850208 4.15,4.15 0,2.299791 -1.85021,4.15 -4.15,4.15 -2.2825,0 -4.15,-1.850209 -4.15,-4.15"
     id="path192" />
  <path
     style="fill:#f5f5f5;stroke:#f5f5f5;stroke-width:0.08645833px;stroke-linecap:round;stroke-linejoin:round;stroke-miterlimit:4;stroke-dasharray:none;stroke-opacity:1;fill-opacity:1"
     d="m 19.215417,15.494618 c 0,-0.951042 0.77813,-1.711875 1.71188,-1.711875 0.95104,0 1.72917,0.760833 1.72917,1.711875 0,0.951042 -0.77813,1.711875 -1.72917,1.711875 -0.93375,0 -1.71188,-0.760833 -1.71188,-1.711875"
     id="path196" />
  <g
     transform="matrix(1.6847627,0,0,1.6847627,-118.97396,15.046336)"
     id="text202"
     style="font-style:normal;font-variant:normal;font-weight:400;font-size:22.12578201px;line-height:125%;font-family:Algerian;text-align:start;letter-spacing:0px;word-spacing:0px;text-anchor:start;fill:#000000;fill-opacity:1;stroke:none;stroke-width:0.26458332"
     aria-label="G">
    <path
       id="path257"
       style="font-style:normal;font-variant:normal;font-weight:400;font-size:22.12578201px;font-family:Algerian;fill:#f5f5f5;stroke-width:0.26458332;fill-opacity:1"
       d="m 160.3829,-4.3669364 -2.02028,3.97572698 q -0.19446,-1.69616598 -1.06956,-2.59286498 -0.86428,-0.8967 -2.29036,-0.8967 -2.03108,0 -3.16546,1.577327 -1.12357,1.57732598 -1.12357,4.418674 0,6.255287 5.12091,6.255287 h 1.73938 v -5.607071 h -2.72251 q -0.8859,0 -1.27483,-0.09723 -0.37812,-0.09723 -0.73464,-0.421341 v -0.27009 q 0.38893,0.291697 0.77786,0.38893 0.38893,0.08643 1.26402,0.08643 h 2.6901 v -0.583398 h -3.0034 -0.48617 q -1.60973,0 -1.60973,-1.16678902 0,-0.453752 0.27009,-0.77786 0.27009,-0.324108 0.64821,-0.324108 0.2809,0 0.48617,0.205269 0.21607,0.205268 0.21607,0.486162 0,0.475358 -0.34572,0.550984 l -0.25928,0.05402 q -0.12965,0.03241 -0.12965,0.10803602 0,0.140447 0.35652,0.140447 h 0.36732 7.13038 l -1.49089,1.458486 v 5.326177 l 1.38286,1.188397 h -5.52064 -1.09117 q -1.37206,0 -2.26876,-0.334912 -0.89669,-0.334912 -1.815,-1.188397 -2.17153,-1.987863 -2.17153,-5.326177 0,-3.446349 2.05269,-5.380195 1.7934,-1.696165 4.25662,-1.696165 1.10197,0 2.52804,0.388929 1.45849,0.399734 1.92304,0.399734 0.68063,0 1.38287,-0.345716 z m 0.64821,0.680627 -1.84741,3.63001098 -0.25929,-0.118839 1.85822,-3.64081498 z m -3.45715,1.642148 -0.19447,-0.140447 q -1.23161,-0.875092 -2.24715,-0.875092 -1.23161,0 -2.12831,0.875092 -0.64821,0.648217 -0.93991,1.69616598 -0.28089,1.04795 -0.28089,2.76572302 0,2.182328 0.43214,3.338314 0.43214,1.155986 1.58813,2.085096 v 0.118839 q -1.25322,-0.745449 -1.8042,-2.095899 -0.55099,-1.361254 -0.55099,-3.684029 0,-2.56045502 0.96153,-3.975727 0.96152,-1.426075 2.7009,-1.426075 1.5125,0 2.46322,1.253218 z m 4.10537,3.802869 -1.11277,1.112771 v 5.066891 l 1.7934,2.0634884 -4.28904,-0.03241 -3.88929,0.04321 q -0.36733,0 -0.56179,-0.02161 -0.68063,-0.07563 -1.37206,-0.594199 h 0.22688 q 0.73464,0.324109 2.00947,0.324109 l 0.54018,-0.0108 h 6.73064 L 160.26406,8.057206 V 2.76344 l 1.24241,-1.253218 z" />
  </g>
  <g
     transform="matrix(1.6847627,0,0,1.6847627,42.865626,-43.106192)"
     id="text208"
     style="font-style:normal;font-variant:normal;font-weight:400;font-size:13.27877617px;line-height:125%;font-family:'Century Gothic';text-align:start;letter-spacing:0px;word-spacing:0px;text-anchor:start;fill:#000000;fill-opacity:1;stroke:none;stroke-width:0.26458332"
     aria-label="ames ">
    <path
       id="path260"
       style="font-style:normal;font-variant:normal;font-weight:400;font-size:13.27877617px;font-family:'Century Gothic';fill:#f5f5f5;stroke-width:0.26458332;fill-opacity:1"
       d="m 74.787107,37.464254 v 7.05435 h -0.894761 v -1.212466 q -0.570573,0.693764 -1.283788,1.043888 -0.706732,0.350124 -1.549623,0.350124 -1.497753,0 -2.561092,-1.082791 -1.056856,-1.089274 -1.056856,-2.645381 0,-1.523688 1.069823,-2.606478 1.069824,-1.082791 2.57406,-1.082791 0.868826,0 1.569074,0.369575 0.706732,0.369575 1.238402,1.108726 v -1.296756 z m -3.630915,0.693765 q -0.758602,0 -1.400496,0.376059 -0.641894,0.369575 -1.024437,1.043888 -0.376059,0.674313 -0.376059,1.426431 0,0.745634 0.382543,1.426431 0.382542,0.680797 1.024436,1.063339 0.648378,0.37606 1.387529,0.37606 0.745634,0 1.413463,-0.37606 0.667829,-0.376059 1.024437,-1.017953 0.363092,-0.641894 0.363092,-1.445882 0,-1.225434 -0.810473,-2.048874 -0.803988,-0.823439 -1.984035,-0.823439 z" />
    <path
       id="path262"
       style="font-style:normal;font-variant:normal;font-weight:400;font-size:13.27877617px;font-family:'Century Gothic';fill:#f5f5f5;stroke-width:0.26458332;fill-opacity:1"
       d="m 76.829497,37.464254 h 0.901245 v 1.218951 q 0.473316,-0.674313 0.972567,-0.985535 0.68728,-0.414961 1.445882,-0.414961 0.512218,0 0.972567,0.200997 0.460348,0.200997 0.752118,0.538153 0.29177,0.330673 0.505735,0.953116 0.453864,-0.829924 1.134661,-1.257853 0.680796,-0.434413 1.465333,-0.434413 0.732667,0 1.290272,0.369575 0.564089,0.369575 0.836407,1.030921 0.272319,0.661345 0.272319,1.984035 v 3.851364 h -0.92718 V 40.66724 q 0,-1.134661 -0.162095,-1.556106 -0.162094,-0.427929 -0.557605,-0.687281 -0.389026,-0.259351 -0.933664,-0.259351 -0.661345,0 -1.212466,0.389027 -0.544637,0.389027 -0.797505,1.037404 -0.252867,0.648378 -0.252867,2.165582 v 2.762089 H 81.633976 V 40.90714 q 0,-1.277304 -0.162094,-1.731168 -0.155611,-0.460349 -0.551121,-0.732667 -0.395511,-0.278803 -0.940148,-0.278803 -0.628927,0 -1.180048,0.382543 -0.544637,0.376059 -0.810472,1.017953 -0.259351,0.641894 -0.259351,1.964585 v 2.989021 h -0.901245 z" />
    <path
       id="path264"
       style="font-style:normal;font-variant:normal;font-weight:400;font-size:13.27877617px;font-family:'Century Gothic';fill:#f5f5f5;stroke-width:0.26458332;fill-opacity:1"
       d="m 95.223974,42.177961 0.765086,0.401994 q -0.376059,0.73915 -0.868826,1.193015 -0.492767,0.453864 -1.108726,0.693764 -0.615959,0.233416 -1.394012,0.233416 -1.724685,0 -2.697252,-1.128177 -0.972566,-1.134661 -0.972566,-2.561092 0,-1.342142 0.82344,-2.392514 1.043888,-1.335658 2.794508,-1.335658 1.80249,0 2.878797,1.368077 0.765086,0.966083 0.778053,2.411965 h -6.341134 q 0.02593,1.231918 0.784537,2.022938 0.758602,0.784538 1.873812,0.784538 0.538153,0 1.043888,-0.18803 0.512218,-0.18803 0.868826,-0.499251 0.356608,-0.311221 0.771569,-1.004985 z m 0,-1.899747 q -0.181545,-0.726183 -0.531669,-1.160596 -0.343641,-0.434413 -0.914213,-0.700248 -0.570572,-0.265835 -1.199499,-0.265835 -1.037404,0 -1.783039,0.667829 -0.544637,0.486283 -0.823439,1.45885 z" />
    <path
       id="path266"
       style="font-style:normal;font-variant:normal;font-weight:400;font-size:13.27877617px;font-family:'Century Gothic';fill:#f5f5f5;stroke-width:0.26458332;fill-opacity:1"
       d="m 101.46785,38.235824 -0.58354,0.602991 q -0.72618,-0.706731 -1.419946,-0.706731 -0.440897,0 -0.758602,0.291769 -0.311221,0.29177 -0.311221,0.680797 0,0.34364 0.259351,0.654862 0.259351,0.317705 1.089274,0.745634 1.011474,0.525186 1.374564,1.011469 0.35661,0.492767 0.35661,1.108726 0,0.868826 -0.60948,1.471818 -0.60948,0.602991 -1.523688,0.602991 -0.609475,0 -1.16708,-0.265835 -0.551121,-0.265835 -0.914212,-0.732667 l 0.570572,-0.648377 q 0.693764,0.784537 1.471818,0.784537 0.544637,0 0.92718,-0.350124 0.38254,-0.350124 0.38254,-0.82344 0,-0.389027 -0.25286,-0.693764 -0.25287,-0.298254 -1.14115,-0.752118 -0.953115,-0.492768 -1.296755,-0.972567 -0.34364,-0.4798 -0.34364,-1.095758 0,-0.803989 0.544637,-1.335659 0.551121,-0.531669 1.387528,-0.531669 0.97257,0 1.9581,0.953115 z" />
  </g>
</svg>
